<mxfile host="app.diagrams.net" agent="Mozilla/5.0 (Windows NT 10.0; Win64; x64) AppleWebKit/537.36 (KHTML, like Gecko) Chrome/131.0.0.0 Safari/537.36" version="25.0.3">
  <diagram name="หน้า-1" id="pypxrFq1hjYKJ9el7vSJ">
    <mxGraphModel dx="1050" dy="530" grid="1" gridSize="10" guides="1" tooltips="1" connect="1" arrows="1" fold="1" page="1" pageScale="1" pageWidth="827" pageHeight="1169" math="0" shadow="0">
      <root>
        <mxCell id="0" />
        <mxCell id="1" parent="0" />
        <mxCell id="4DO4kU6Ecrtcvtl5olVh-4" value="" style="edgeStyle=orthogonalEdgeStyle;rounded=0;orthogonalLoop=1;jettySize=auto;html=1;" edge="1" parent="1" source="4DO4kU6Ecrtcvtl5olVh-1" target="4DO4kU6Ecrtcvtl5olVh-3">
          <mxGeometry relative="1" as="geometry" />
        </mxCell>
        <mxCell id="4DO4kU6Ecrtcvtl5olVh-1" value="Start" style="ellipse;whiteSpace=wrap;html=1;" vertex="1" parent="1">
          <mxGeometry x="354" y="10" width="120" height="80" as="geometry" />
        </mxCell>
        <mxCell id="4DO4kU6Ecrtcvtl5olVh-6" value="" style="edgeStyle=orthogonalEdgeStyle;rounded=0;orthogonalLoop=1;jettySize=auto;html=1;" edge="1" parent="1" source="4DO4kU6Ecrtcvtl5olVh-3" target="4DO4kU6Ecrtcvtl5olVh-5">
          <mxGeometry relative="1" as="geometry" />
        </mxCell>
        <mxCell id="4DO4kU6Ecrtcvtl5olVh-3" value="Read file" style="whiteSpace=wrap;html=1;" vertex="1" parent="1">
          <mxGeometry x="354" y="180" width="120" height="60" as="geometry" />
        </mxCell>
        <mxCell id="4DO4kU6Ecrtcvtl5olVh-8" value="" style="edgeStyle=orthogonalEdgeStyle;rounded=0;orthogonalLoop=1;jettySize=auto;html=1;" edge="1" parent="1" source="4DO4kU6Ecrtcvtl5olVh-5" target="4DO4kU6Ecrtcvtl5olVh-7">
          <mxGeometry relative="1" as="geometry" />
        </mxCell>
        <mxCell id="4DO4kU6Ecrtcvtl5olVh-5" value="&lt;div style=&quot;text-align: left;&quot;&gt;&lt;span style=&quot;background-color: initial;&quot;&gt;Choose a duplicate&lt;/span&gt;&lt;/div&gt;" style="whiteSpace=wrap;html=1;" vertex="1" parent="1">
          <mxGeometry x="354" y="320" width="120" height="60" as="geometry" />
        </mxCell>
        <mxCell id="4DO4kU6Ecrtcvtl5olVh-16" value="" style="edgeStyle=orthogonalEdgeStyle;rounded=0;orthogonalLoop=1;jettySize=auto;html=1;" edge="1" parent="1" source="4DO4kU6Ecrtcvtl5olVh-7" target="4DO4kU6Ecrtcvtl5olVh-15">
          <mxGeometry relative="1" as="geometry" />
        </mxCell>
        <mxCell id="4DO4kU6Ecrtcvtl5olVh-7" value="pick the most salary in the same duplicate" style="whiteSpace=wrap;html=1;" vertex="1" parent="1">
          <mxGeometry x="354" y="460" width="120" height="60" as="geometry" />
        </mxCell>
        <mxCell id="4DO4kU6Ecrtcvtl5olVh-14" value="F" style="edgeStyle=orthogonalEdgeStyle;rounded=0;orthogonalLoop=1;jettySize=auto;html=1;" edge="1" parent="1" source="4DO4kU6Ecrtcvtl5olVh-11" target="4DO4kU6Ecrtcvtl5olVh-13">
          <mxGeometry relative="1" as="geometry" />
        </mxCell>
        <mxCell id="4DO4kU6Ecrtcvtl5olVh-22" value="T" style="edgeStyle=orthogonalEdgeStyle;rounded=0;orthogonalLoop=1;jettySize=auto;html=1;" edge="1" parent="1" source="4DO4kU6Ecrtcvtl5olVh-11" target="4DO4kU6Ecrtcvtl5olVh-21">
          <mxGeometry relative="1" as="geometry" />
        </mxCell>
        <mxCell id="4DO4kU6Ecrtcvtl5olVh-11" value="out of duplicate" style="rhombus;whiteSpace=wrap;html=1;" vertex="1" parent="1">
          <mxGeometry x="374" y="740" width="80" height="80" as="geometry" />
        </mxCell>
        <mxCell id="4DO4kU6Ecrtcvtl5olVh-13" value="output the most salary in duplicate" style="shape=parallelogram;perimeter=parallelogramPerimeter;whiteSpace=wrap;html=1;fixedSize=1;" vertex="1" parent="1">
          <mxGeometry x="354" y="910" width="120" height="60" as="geometry" />
        </mxCell>
        <mxCell id="4DO4kU6Ecrtcvtl5olVh-17" value="" style="edgeStyle=orthogonalEdgeStyle;rounded=0;orthogonalLoop=1;jettySize=auto;html=1;" edge="1" parent="1" source="4DO4kU6Ecrtcvtl5olVh-15" target="4DO4kU6Ecrtcvtl5olVh-11">
          <mxGeometry relative="1" as="geometry" />
        </mxCell>
        <mxCell id="4DO4kU6Ecrtcvtl5olVh-15" value="" style="shape=waypoint;sketch=0;size=6;pointerEvents=1;points=[];fillColor=default;resizable=0;rotatable=0;perimeter=centerPerimeter;snapToPoint=1;" vertex="1" parent="1">
          <mxGeometry x="404" y="620" width="20" height="20" as="geometry" />
        </mxCell>
        <mxCell id="4DO4kU6Ecrtcvtl5olVh-18" style="edgeStyle=orthogonalEdgeStyle;rounded=0;orthogonalLoop=1;jettySize=auto;html=1;entryX=0.86;entryY=0.66;entryDx=0;entryDy=0;entryPerimeter=0;" edge="1" parent="1" source="4DO4kU6Ecrtcvtl5olVh-13" target="4DO4kU6Ecrtcvtl5olVh-15">
          <mxGeometry relative="1" as="geometry">
            <Array as="points">
              <mxPoint x="490" y="940" />
              <mxPoint x="490" y="633" />
            </Array>
          </mxGeometry>
        </mxCell>
        <mxCell id="4DO4kU6Ecrtcvtl5olVh-24" value="" style="edgeStyle=orthogonalEdgeStyle;rounded=0;orthogonalLoop=1;jettySize=auto;html=1;" edge="1" parent="1" source="4DO4kU6Ecrtcvtl5olVh-21" target="4DO4kU6Ecrtcvtl5olVh-23">
          <mxGeometry relative="1" as="geometry" />
        </mxCell>
        <mxCell id="4DO4kU6Ecrtcvtl5olVh-21" value="Sum salary / person amount" style="whiteSpace=wrap;html=1;" vertex="1" parent="1">
          <mxGeometry x="194" y="750" width="120" height="60" as="geometry" />
        </mxCell>
        <mxCell id="4DO4kU6Ecrtcvtl5olVh-27" style="edgeStyle=orthogonalEdgeStyle;rounded=0;orthogonalLoop=1;jettySize=auto;html=1;exitX=0.5;exitY=1;exitDx=0;exitDy=0;entryX=0.5;entryY=0;entryDx=0;entryDy=0;" edge="1" parent="1" source="4DO4kU6Ecrtcvtl5olVh-23" target="4DO4kU6Ecrtcvtl5olVh-26">
          <mxGeometry relative="1" as="geometry" />
        </mxCell>
        <mxCell id="4DO4kU6Ecrtcvtl5olVh-23" value="Output Averange" style="shape=parallelogram;perimeter=parallelogramPerimeter;whiteSpace=wrap;html=1;fixedSize=1;" vertex="1" parent="1">
          <mxGeometry x="194" y="910" width="120" height="60" as="geometry" />
        </mxCell>
        <mxCell id="4DO4kU6Ecrtcvtl5olVh-26" value="End" style="ellipse;whiteSpace=wrap;html=1;" vertex="1" parent="1">
          <mxGeometry x="354" y="1060" width="120" height="80" as="geometry" />
        </mxCell>
      </root>
    </mxGraphModel>
  </diagram>
</mxfile>
